<?xml version="1.0" encoding="UTF-8"?>
<!DOCTYPE svg PUBLIC "-//W3C//DTD SVG 1.1//EN" "http://www.w3.org/Graphics/SVG/1.1/DTD/svg11.dtd">
<svg xmlns="http://www.w3.org/2000/svg" version="1.1" width="480px" height="480px" style="shape-rendering:geometricPrecision; text-rendering:geometricPrecision; image-rendering:optimizeQuality; fill-rule:evenodd; clip-rule:evenodd" xmlns:xlink="http://www.w3.org/1999/xlink">
<g><path style="opacity:1" fill="#f9f9f9" d="M -0.5,-0.5 C 112.833,-0.5 226.167,-0.5 339.5,-0.5C 339.5,2.83333 339.5,6.16667 339.5,9.5C 336.167,9.5 332.833,9.5 329.5,9.5C 329.5,12.8333 329.5,16.1667 329.5,19.5C 326.167,19.5 322.833,19.5 319.5,19.5C 319.5,22.8333 319.5,26.1667 319.5,29.5C 316.167,29.5 312.833,29.5 309.5,29.5C 309.5,32.8333 309.5,36.1667 309.5,39.5C 306.167,39.5 302.833,39.5 299.5,39.5C 299.5,42.8333 299.5,46.1667 299.5,49.5C 296.167,49.5 292.833,49.5 289.5,49.5C 289.5,52.8333 289.5,56.1667 289.5,59.5C 286.167,59.5 282.833,59.5 279.5,59.5C 279.5,62.8333 279.5,66.1667 279.5,69.5C 276.167,69.5 272.833,69.5 269.5,69.5C 269.5,72.8333 269.5,76.1667 269.5,79.5C 266.167,79.5 262.833,79.5 259.5,79.5C 259.5,82.8333 259.5,86.1667 259.5,89.5C 256.167,89.5 252.833,89.5 249.5,89.5C 249.5,92.8333 249.5,96.1667 249.5,99.5C 246.167,99.5 242.833,99.5 239.5,99.5C 239.5,102.833 239.5,106.167 239.5,109.5C 236.167,109.5 232.833,109.5 229.5,109.5C 229.5,112.833 229.5,116.167 229.5,119.5C 226.167,119.5 222.833,119.5 219.5,119.5C 219.5,122.833 219.5,126.167 219.5,129.5C 216.167,129.5 212.833,129.5 209.5,129.5C 209.5,132.833 209.5,136.167 209.5,139.5C 206.167,139.5 202.833,139.5 199.5,139.5C 199.5,142.833 199.5,146.167 199.5,149.5C 196.167,149.5 192.833,149.5 189.5,149.5C 189.5,152.833 189.5,156.167 189.5,159.5C 186.167,159.5 182.833,159.5 179.5,159.5C 179.5,162.833 179.5,166.167 179.5,169.5C 176.167,169.5 172.833,169.5 169.5,169.5C 169.5,172.833 169.5,176.167 169.5,179.5C 166.167,179.5 162.833,179.5 159.5,179.5C 159.5,182.833 159.5,186.167 159.5,189.5C 156.167,189.5 152.833,189.5 149.5,189.5C 149.5,192.833 149.5,196.167 149.5,199.5C 146.167,199.5 142.833,199.5 139.5,199.5C 139.5,202.833 139.5,206.167 139.5,209.5C 136.167,209.5 132.833,209.5 129.5,209.5C 129.5,212.833 129.5,216.167 129.5,219.5C 126.167,219.5 122.833,219.5 119.5,219.5C 119.5,222.833 119.5,226.167 119.5,229.5C 116.167,229.5 112.833,229.5 109.5,229.5C 109.5,232.833 109.5,236.167 109.5,239.5C 106.167,239.5 102.833,239.5 99.5,239.5C 99.5,242.833 99.5,246.167 99.5,249.5C 96.1667,249.5 92.8333,249.5 89.5,249.5C 89.5,252.833 89.5,256.167 89.5,259.5C 86.1667,259.5 82.8333,259.5 79.5,259.5C 79.5,262.833 79.5,266.167 79.5,269.5C 76.1667,269.5 72.8333,269.5 69.5,269.5C 69.5,272.833 69.5,276.167 69.5,279.5C 66.1667,279.5 62.8333,279.5 59.5,279.5C 59.5,282.833 59.5,286.167 59.5,289.5C 56.1667,289.5 52.8333,289.5 49.5,289.5C 49.5,292.833 49.5,296.167 49.5,299.5C 46.1667,299.5 42.8333,299.5 39.5,299.5C 39.5,306.167 39.5,312.833 39.5,319.5C 36.1667,319.5 32.8333,319.5 29.5,319.5C 29.5,322.833 29.5,326.167 29.5,329.5C 26.1667,329.5 22.8333,329.5 19.5,329.5C 19.5,332.833 19.5,336.167 19.5,339.5C 22.8333,339.5 26.1667,339.5 29.5,339.5C 29.5,342.833 29.5,346.167 29.5,349.5C 26.1667,349.5 22.8333,349.5 19.5,349.5C 19.5,352.833 19.5,356.167 19.5,359.5C 16.1667,359.5 12.8333,359.5 9.5,359.5C 9.5,362.833 9.5,366.167 9.5,369.5C 12.8333,369.5 16.1667,369.5 19.5,369.5C 19.5,379.5 19.5,389.5 19.5,399.5C 15.1275,419.657 10.1275,439.657 4.5,459.5C 3.07619,461.515 2.40953,463.848 2.5,466.5C 1.91816,469.313 0.918165,471.98 -0.5,474.5C -0.5,316.167 -0.5,157.833 -0.5,-0.5 Z"/></g>
<g><path style="opacity:1" fill="#fd0303" d="M 360.5,-0.5 C 367.833,-0.5 375.167,-0.5 382.5,-0.5C 387.377,1.9385 392.377,4.4385 397.5,7C 420.972,29.4716 444.139,52.3049 467,75.5C 470.053,78.8866 472.72,82.5533 475,86.5C 475.911,90.2299 477.411,93.5632 479.5,96.5C 479.5,103.833 479.5,111.167 479.5,118.5C 477.091,125.308 473.591,131.641 469,137.5C 370.5,236 272,334.5 173.5,433C 166.335,435.034 159.335,437.201 152.5,439.5C 103.55,452.488 54.5498,465.321 5.5,478C 4.94404,478.383 4.61071,478.883 4.5,479.5C 2.83333,479.5 1.16667,479.5 -0.5,479.5C -0.5,477.833 -0.5,476.167 -0.5,474.5C 0.918165,471.98 1.91816,469.313 2.5,466.5C 3.92381,464.485 4.59047,462.152 4.5,459.5C 10.1275,439.657 15.1275,419.657 19.5,399.5C 27.9825,368.534 36.8158,337.534 46,306.5C 144.446,207.054 243.279,107.888 342.5,9C 348.192,4.99002 354.192,1.82335 360.5,-0.5 Z"/></g>
<g><path style="opacity:1" fill="#f9f9f9" d="M 382.5,-0.5 C 414.833,-0.5 447.167,-0.5 479.5,-0.5C 479.5,31.8333 479.5,64.1667 479.5,96.5C 477.411,93.5632 475.911,90.2299 475,86.5C 472.72,82.5533 470.053,78.8866 467,75.5C 444.139,52.3049 420.972,29.4716 397.5,7C 392.377,4.4385 387.377,1.9385 382.5,-0.5 Z"/></g>
<g><path style="opacity:1" fill="#fafafa" d="M 369.5,21.5 C 369.5,24.1667 369.5,26.8333 369.5,29.5C 372.833,29.5 376.167,29.5 379.5,29.5C 379.5,32.8333 379.5,36.1667 379.5,39.5C 382.833,39.5 386.167,39.5 389.5,39.5C 389.5,42.8333 389.5,46.1667 389.5,49.5C 392.833,49.5 396.167,49.5 399.5,49.5C 399.5,52.8333 399.5,56.1667 399.5,59.5C 402.833,59.5 406.167,59.5 409.5,59.5C 409.5,62.8333 409.5,66.1667 409.5,69.5C 412.833,69.5 416.167,69.5 419.5,69.5C 419.5,72.8333 419.5,76.1667 419.5,79.5C 422.833,79.5 426.167,79.5 429.5,79.5C 429.5,82.8333 429.5,86.1667 429.5,89.5C 432.833,89.5 436.167,89.5 439.5,89.5C 439.5,92.8333 439.5,96.1667 439.5,99.5C 442.833,99.5 446.167,99.5 449.5,99.5C 449.5,102.833 449.5,106.167 449.5,109.5C 446.167,109.5 442.833,109.5 439.5,109.5C 439.5,116.167 439.5,122.833 439.5,129.5C 436.167,129.5 432.833,129.5 429.5,129.5C 429.5,132.833 429.5,136.167 429.5,139.5C 422.833,139.5 416.167,139.5 409.5,139.5C 409.5,136.167 409.5,132.833 409.5,129.5C 406.167,129.5 402.833,129.5 399.5,129.5C 399.5,126.167 399.5,122.833 399.5,119.5C 396.167,119.5 392.833,119.5 389.5,119.5C 389.5,116.167 389.5,112.833 389.5,109.5C 386.167,109.5 382.833,109.5 379.5,109.5C 379.5,106.167 379.5,102.833 379.5,99.5C 376.167,99.5 372.833,99.5 369.5,99.5C 369.5,96.1667 369.5,92.8333 369.5,89.5C 366.167,89.5 362.833,89.5 359.5,89.5C 359.5,86.1667 359.5,82.8333 359.5,79.5C 356.167,79.5 352.833,79.5 349.5,79.5C 349.5,76.1667 349.5,72.8333 349.5,69.5C 346.167,69.5 342.833,69.5 339.5,69.5C 339.5,66.1667 339.5,62.8333 339.5,59.5C 336.167,59.5 332.833,59.5 329.5,59.5C 329.5,57.1667 329.5,54.8333 329.5,52.5C 339.07,41.4286 349.736,31.5953 361.5,23C 364.063,21.9207 366.729,21.4207 369.5,21.5 Z"/></g>
<g><path style="opacity:1" fill="#f6f4f5" d="M 369.5,21.5 C 375.672,21.0566 381.338,22.5566 386.5,26C 409,48.5 431.5,71 454,93.5C 460,102.833 460,112.167 454,121.5C 443.53,132.971 432.697,144.137 421.5,155C 420.5,155.667 419.5,155.667 418.5,155C 387,123.5 355.5,92 324,60.5C 324.32,56.978 326.153,54.3113 329.5,52.5C 329.5,54.8333 329.5,57.1667 329.5,59.5C 332.833,59.5 336.167,59.5 339.5,59.5C 339.5,62.8333 339.5,66.1667 339.5,69.5C 342.833,69.5 346.167,69.5 349.5,69.5C 349.5,72.8333 349.5,76.1667 349.5,79.5C 352.833,79.5 356.167,79.5 359.5,79.5C 359.5,82.8333 359.5,86.1667 359.5,89.5C 362.833,89.5 366.167,89.5 369.5,89.5C 369.5,92.8333 369.5,96.1667 369.5,99.5C 372.833,99.5 376.167,99.5 379.5,99.5C 379.5,102.833 379.5,106.167 379.5,109.5C 382.833,109.5 386.167,109.5 389.5,109.5C 389.5,112.833 389.5,116.167 389.5,119.5C 392.833,119.5 396.167,119.5 399.5,119.5C 399.5,122.833 399.5,126.167 399.5,129.5C 402.833,129.5 406.167,129.5 409.5,129.5C 409.5,132.833 409.5,136.167 409.5,139.5C 416.167,139.5 422.833,139.5 429.5,139.5C 429.5,136.167 429.5,132.833 429.5,129.5C 432.833,129.5 436.167,129.5 439.5,129.5C 439.5,122.833 439.5,116.167 439.5,109.5C 442.833,109.5 446.167,109.5 449.5,109.5C 449.5,106.167 449.5,102.833 449.5,99.5C 446.167,99.5 442.833,99.5 439.5,99.5C 439.5,96.1667 439.5,92.8333 439.5,89.5C 436.167,89.5 432.833,89.5 429.5,89.5C 429.5,86.1667 429.5,82.8333 429.5,79.5C 426.167,79.5 422.833,79.5 419.5,79.5C 419.5,76.1667 419.5,72.8333 419.5,69.5C 416.167,69.5 412.833,69.5 409.5,69.5C 409.5,66.1667 409.5,62.8333 409.5,59.5C 406.167,59.5 402.833,59.5 399.5,59.5C 399.5,56.1667 399.5,52.8333 399.5,49.5C 396.167,49.5 392.833,49.5 389.5,49.5C 389.5,46.1667 389.5,42.8333 389.5,39.5C 386.167,39.5 382.833,39.5 379.5,39.5C 379.5,36.1667 379.5,32.8333 379.5,29.5C 376.167,29.5 372.833,29.5 369.5,29.5C 369.5,26.8333 369.5,24.1667 369.5,21.5 Z"/></g>
<g><path style="opacity:1" fill="#fbf0f2" d="M 479.5,118.5 C 479.5,125.5 479.5,132.5 479.5,139.5C 476.167,139.5 472.833,139.5 469.5,139.5C 469.5,142.833 469.5,146.167 469.5,149.5C 466.167,149.5 462.833,149.5 459.5,149.5C 459.5,152.833 459.5,156.167 459.5,159.5C 456.167,159.5 452.833,159.5 449.5,159.5C 449.5,162.833 449.5,166.167 449.5,169.5C 446.167,169.5 442.833,169.5 439.5,169.5C 439.5,172.833 439.5,176.167 439.5,179.5C 436.167,179.5 432.833,179.5 429.5,179.5C 429.5,182.833 429.5,186.167 429.5,189.5C 426.167,189.5 422.833,189.5 419.5,189.5C 419.5,192.833 419.5,196.167 419.5,199.5C 416.167,199.5 412.833,199.5 409.5,199.5C 409.5,202.833 409.5,206.167 409.5,209.5C 406.167,209.5 402.833,209.5 399.5,209.5C 399.5,212.833 399.5,216.167 399.5,219.5C 396.167,219.5 392.833,219.5 389.5,219.5C 389.5,222.833 389.5,226.167 389.5,229.5C 386.167,229.5 382.833,229.5 379.5,229.5C 379.5,232.833 379.5,236.167 379.5,239.5C 376.167,239.5 372.833,239.5 369.5,239.5C 369.5,242.833 369.5,246.167 369.5,249.5C 366.167,249.5 362.833,249.5 359.5,249.5C 359.5,252.833 359.5,256.167 359.5,259.5C 356.167,259.5 352.833,259.5 349.5,259.5C 349.5,262.833 349.5,266.167 349.5,269.5C 346.167,269.5 342.833,269.5 339.5,269.5C 339.5,272.833 339.5,276.167 339.5,279.5C 336.167,279.5 332.833,279.5 329.5,279.5C 329.5,282.833 329.5,286.167 329.5,289.5C 326.167,289.5 322.833,289.5 319.5,289.5C 319.5,292.833 319.5,296.167 319.5,299.5C 316.167,299.5 312.833,299.5 309.5,299.5C 309.5,302.833 309.5,306.167 309.5,309.5C 306.167,309.5 302.833,309.5 299.5,309.5C 299.5,312.833 299.5,316.167 299.5,319.5C 296.167,319.5 292.833,319.5 289.5,319.5C 289.5,322.833 289.5,326.167 289.5,329.5C 286.167,329.5 282.833,329.5 279.5,329.5C 279.5,332.833 279.5,336.167 279.5,339.5C 276.167,339.5 272.833,339.5 269.5,339.5C 269.5,342.833 269.5,346.167 269.5,349.5C 266.167,349.5 262.833,349.5 259.5,349.5C 259.5,352.833 259.5,356.167 259.5,359.5C 256.167,359.5 252.833,359.5 249.5,359.5C 249.5,362.833 249.5,366.167 249.5,369.5C 246.167,369.5 242.833,369.5 239.5,369.5C 239.5,372.833 239.5,376.167 239.5,379.5C 236.167,379.5 232.833,379.5 229.5,379.5C 229.5,382.833 229.5,386.167 229.5,389.5C 226.167,389.5 222.833,389.5 219.5,389.5C 219.5,392.833 219.5,396.167 219.5,399.5C 216.167,399.5 212.833,399.5 209.5,399.5C 209.5,402.833 209.5,406.167 209.5,409.5C 206.167,409.5 202.833,409.5 199.5,409.5C 199.5,412.833 199.5,416.167 199.5,419.5C 196.167,419.5 192.833,419.5 189.5,419.5C 189.5,422.833 189.5,426.167 189.5,429.5C 186.167,429.5 182.833,429.5 179.5,429.5C 179.5,432.833 179.5,436.167 179.5,439.5C 170.424,439.259 161.424,439.259 152.5,439.5C 159.335,437.201 166.335,435.034 173.5,433C 272,334.5 370.5,236 469,137.5C 473.591,131.641 477.091,125.308 479.5,118.5 Z"/></g>
<g><path style="opacity:1" fill="#fafafa" d="M 479.5,139.5 C 479.5,252.833 479.5,366.167 479.5,479.5C 321.167,479.5 162.833,479.5 4.5,479.5C 4.61071,478.883 4.94404,478.383 5.5,478C 54.5498,465.321 103.55,452.488 152.5,439.5C 161.424,439.259 170.424,439.259 179.5,439.5C 179.5,436.167 179.5,432.833 179.5,429.5C 182.833,429.5 186.167,429.5 189.5,429.5C 189.5,426.167 189.5,422.833 189.5,419.5C 192.833,419.5 196.167,419.5 199.5,419.5C 199.5,416.167 199.5,412.833 199.5,409.5C 202.833,409.5 206.167,409.5 209.5,409.5C 209.5,406.167 209.5,402.833 209.5,399.5C 212.833,399.5 216.167,399.5 219.5,399.5C 219.5,396.167 219.5,392.833 219.5,389.5C 222.833,389.5 226.167,389.5 229.5,389.5C 229.5,386.167 229.5,382.833 229.5,379.5C 232.833,379.5 236.167,379.5 239.5,379.5C 239.5,376.167 239.5,372.833 239.5,369.5C 242.833,369.5 246.167,369.5 249.5,369.5C 249.5,366.167 249.5,362.833 249.5,359.5C 252.833,359.5 256.167,359.5 259.5,359.5C 259.5,356.167 259.5,352.833 259.5,349.5C 262.833,349.5 266.167,349.5 269.5,349.5C 269.5,346.167 269.5,342.833 269.5,339.5C 272.833,339.5 276.167,339.5 279.5,339.5C 279.5,336.167 279.5,332.833 279.5,329.5C 282.833,329.5 286.167,329.5 289.5,329.5C 289.5,326.167 289.5,322.833 289.5,319.5C 292.833,319.5 296.167,319.5 299.5,319.5C 299.5,316.167 299.5,312.833 299.5,309.5C 302.833,309.5 306.167,309.5 309.5,309.5C 309.5,306.167 309.5,302.833 309.5,299.5C 312.833,299.5 316.167,299.5 319.5,299.5C 319.5,296.167 319.5,292.833 319.5,289.5C 322.833,289.5 326.167,289.5 329.5,289.5C 329.5,286.167 329.5,282.833 329.5,279.5C 332.833,279.5 336.167,279.5 339.5,279.5C 339.5,276.167 339.5,272.833 339.5,269.5C 342.833,269.5 346.167,269.5 349.5,269.5C 349.5,266.167 349.5,262.833 349.5,259.5C 352.833,259.5 356.167,259.5 359.5,259.5C 359.5,256.167 359.5,252.833 359.5,249.5C 362.833,249.5 366.167,249.5 369.5,249.5C 369.5,246.167 369.5,242.833 369.5,239.5C 372.833,239.5 376.167,239.5 379.5,239.5C 379.5,236.167 379.5,232.833 379.5,229.5C 382.833,229.5 386.167,229.5 389.5,229.5C 389.5,226.167 389.5,222.833 389.5,219.5C 392.833,219.5 396.167,219.5 399.5,219.5C 399.5,216.167 399.5,212.833 399.5,209.5C 402.833,209.5 406.167,209.5 409.5,209.5C 409.5,206.167 409.5,202.833 409.5,199.5C 412.833,199.5 416.167,199.5 419.5,199.5C 419.5,196.167 419.5,192.833 419.5,189.5C 422.833,189.5 426.167,189.5 429.5,189.5C 429.5,186.167 429.5,182.833 429.5,179.5C 432.833,179.5 436.167,179.5 439.5,179.5C 439.5,176.167 439.5,172.833 439.5,169.5C 442.833,169.5 446.167,169.5 449.5,169.5C 449.5,166.167 449.5,162.833 449.5,159.5C 452.833,159.5 456.167,159.5 459.5,159.5C 459.5,156.167 459.5,152.833 459.5,149.5C 462.833,149.5 466.167,149.5 469.5,149.5C 469.5,146.167 469.5,142.833 469.5,139.5C 472.833,139.5 476.167,139.5 479.5,139.5 Z"/></g>
<g><path style="opacity:1" fill="#f9f9f9" d="M 290.5,90.5 C 323.763,122.096 356.43,154.429 388.5,187.5C 315.167,261.5 241.5,335.167 167.5,408.5C 135.514,377.014 103.68,345.347 72,313.5C 71.3333,312.5 71.3333,311.5 72,310.5C 145.45,237.551 218.284,164.217 290.5,90.5 Z"/></g>
<g><path style="opacity:1" fill="#fbf7f8" d="M 339.5,-0.5 C 346.5,-0.5 353.5,-0.5 360.5,-0.5C 354.192,1.82335 348.192,4.99002 342.5,9C 243.279,107.888 144.446,207.054 46,306.5C 36.8158,337.534 27.9825,368.534 19.5,399.5C 19.5,389.5 19.5,379.5 19.5,369.5C 16.1667,369.5 12.8333,369.5 9.5,369.5C 9.5,366.167 9.5,362.833 9.5,359.5C 12.8333,359.5 16.1667,359.5 19.5,359.5C 19.5,356.167 19.5,352.833 19.5,349.5C 22.8333,349.5 26.1667,349.5 29.5,349.5C 29.5,346.167 29.5,342.833 29.5,339.5C 26.1667,339.5 22.8333,339.5 19.5,339.5C 19.5,336.167 19.5,332.833 19.5,329.5C 22.8333,329.5 26.1667,329.5 29.5,329.5C 29.5,326.167 29.5,322.833 29.5,319.5C 32.8333,319.5 36.1667,319.5 39.5,319.5C 39.5,312.833 39.5,306.167 39.5,299.5C 42.8333,299.5 46.1667,299.5 49.5,299.5C 49.5,296.167 49.5,292.833 49.5,289.5C 52.8333,289.5 56.1667,289.5 59.5,289.5C 59.5,286.167 59.5,282.833 59.5,279.5C 62.8333,279.5 66.1667,279.5 69.5,279.5C 69.5,276.167 69.5,272.833 69.5,269.5C 72.8333,269.5 76.1667,269.5 79.5,269.5C 79.5,266.167 79.5,262.833 79.5,259.5C 82.8333,259.5 86.1667,259.5 89.5,259.5C 89.5,256.167 89.5,252.833 89.5,249.5C 92.8333,249.5 96.1667,249.5 99.5,249.5C 99.5,246.167 99.5,242.833 99.5,239.5C 102.833,239.5 106.167,239.5 109.5,239.5C 109.5,236.167 109.5,232.833 109.5,229.5C 112.833,229.5 116.167,229.5 119.5,229.5C 119.5,226.167 119.5,222.833 119.5,219.5C 122.833,219.5 126.167,219.5 129.5,219.5C 129.5,216.167 129.5,212.833 129.5,209.5C 132.833,209.5 136.167,209.5 139.5,209.5C 139.5,206.167 139.5,202.833 139.5,199.5C 142.833,199.5 146.167,199.5 149.5,199.5C 149.5,196.167 149.5,192.833 149.5,189.5C 152.833,189.5 156.167,189.5 159.5,189.5C 159.5,186.167 159.5,182.833 159.5,179.5C 162.833,179.5 166.167,179.5 169.5,179.5C 169.5,176.167 169.5,172.833 169.5,169.5C 172.833,169.5 176.167,169.5 179.5,169.5C 179.5,166.167 179.5,162.833 179.5,159.5C 182.833,159.5 186.167,159.5 189.5,159.5C 189.5,156.167 189.5,152.833 189.5,149.5C 192.833,149.5 196.167,149.5 199.5,149.5C 199.5,146.167 199.5,142.833 199.5,139.5C 202.833,139.5 206.167,139.5 209.5,139.5C 209.5,136.167 209.5,132.833 209.5,129.5C 212.833,129.5 216.167,129.5 219.5,129.5C 219.5,126.167 219.5,122.833 219.5,119.5C 222.833,119.5 226.167,119.5 229.5,119.5C 229.5,116.167 229.5,112.833 229.5,109.5C 232.833,109.5 236.167,109.5 239.5,109.5C 239.5,106.167 239.5,102.833 239.5,99.5C 242.833,99.5 246.167,99.5 249.5,99.5C 249.5,96.1667 249.5,92.8333 249.5,89.5C 252.833,89.5 256.167,89.5 259.5,89.5C 259.5,86.1667 259.5,82.8333 259.5,79.5C 262.833,79.5 266.167,79.5 269.5,79.5C 269.5,76.1667 269.5,72.8333 269.5,69.5C 272.833,69.5 276.167,69.5 279.5,69.5C 279.5,66.1667 279.5,62.8333 279.5,59.5C 282.833,59.5 286.167,59.5 289.5,59.5C 289.5,56.1667 289.5,52.8333 289.5,49.5C 292.833,49.5 296.167,49.5 299.5,49.5C 299.5,46.1667 299.5,42.8333 299.5,39.5C 302.833,39.5 306.167,39.5 309.5,39.5C 309.5,36.1667 309.5,32.8333 309.5,29.5C 312.833,29.5 316.167,29.5 319.5,29.5C 319.5,26.1667 319.5,22.8333 319.5,19.5C 322.833,19.5 326.167,19.5 329.5,19.5C 329.5,16.1667 329.5,12.8333 329.5,9.5C 332.833,9.5 336.167,9.5 339.5,9.5C 339.5,6.16667 339.5,2.83333 339.5,-0.5 Z"/></g>
<g><path style="opacity:1" fill="#f9f7f8" d="M 60.5,333.5 C 88.9653,361.465 117.299,389.632 145.5,418C 123.342,423.938 101.175,430.105 79,436.5C 66.7079,425.209 54.7079,413.542 43,401.5C 48.7143,378.847 54.5476,356.181 60.5,333.5 Z"/></g>
<g><path style="opacity:1" fill="#ee4d52" d="M 4.5,459.5 C 4.59047,462.152 3.92381,464.485 2.5,466.5C 2.40953,463.848 3.07619,461.515 4.5,459.5 Z"/></g>
</svg>
